<mxfile host="app.diagrams.net" modified="2023-05-28T11:33:52.398Z" agent="Mozilla/5.0 (Macintosh; Intel Mac OS X 10_15_7) AppleWebKit/537.36 (KHTML, like Gecko) Chrome/113.0.0.0 Safari/537.36" version="21.3.5" etag="DvaM8lZ7zf9_6658uPr9" type="github">
  <diagram name="第 1 页" id="hgoyrOUg3Z2H3lXpM1j8">
    <mxGraphModel>
      <root>
        <mxCell id="0" />
        <mxCell id="1" parent="0" />
      </root>
    </mxGraphModel>
  </diagram>
</mxfile>
